<?xml version="1.0" standalone="no"?>
<!DOCTYPE svg PUBLIC "-//W3C//DTD SVG 20010904//EN"
 "http://www.w3.org/TR/2001/REC-SVG-20010904/DTD/svg10.dtd">
<svg version="1.0" xmlns="http://www.w3.org/2000/svg"
 width="160.000000pt" height="160.000000pt" viewBox="0 0 160.000000 160.000000"
 preserveAspectRatio="xMidYMid meet">
<metadata>
Created by potrace 1.11, written by Peter Selinger 2001-2013
</metadata>
<g transform="translate(0.000000,160.000000) scale(0.100000,-0.100000)"
fill="#000000" stroke="none">
<path d="M730 1527 c-3 -3 -24 -7 -48 -11 -125 -17 -281 -148 -309 -259 -9
-39 -10 -221 -1 -255 8 -27 6 -36 -8 -46 -14 -11 -16 -23 -11 -72 7 -70 34
-163 47 -165 6 -1 14 -2 19 -3 5 0 13 -4 17 -8 4 -5 -34 -8 -84 -8 -83 0 -92
-2 -103 -21 -10 -20 -8 -126 6 -321 4 -51 2 -60 -21 -85 -42 -45 -85 -141
-101 -225 -1 -10 -4 -23 -5 -30 -2 -10 131 -14 683 -16 674 -2 687 -2 692 17
3 11 2 22 -1 26 -3 3 -7 11 -8 18 -9 53 -79 196 -103 212 -10 6 -9 44 5 240
10 135 6 168 -22 179 -10 4 -52 7 -96 7 -44 0 -78 5 -78 10 0 6 4 8 9 5 28
-17 59 56 77 180 4 35 2 44 -15 56 -12 8 -18 17 -16 20 16 15 23 170 12 243
-22 145 -112 243 -267 290 -52 15 -259 33 -270 22z"/>
</g>
</svg>
